<?xml version="1.0" encoding="UTF-8"?><svg id="Capa_1" xmlns="http://www.w3.org/2000/svg" xmlns:xlink="http://www.w3.org/1999/xlink" viewBox="0 0 1224 360"><defs><style>.cls-1{fill:#fff;}.cls-2{fill:url(#Degradado_sin_nombre_10);}.cls-3{fill:none;}</style><linearGradient id="Degradado_sin_nombre_10" x1="918" y1="355.18" x2="882" y2="292.82" gradientTransform="matrix(1, 0, 0, 1, 0, 0)" gradientUnits="userSpaceOnUse"><stop offset="0" stop-color="#c1272d"/><stop offset="1" stop-color="#f15a24"/></linearGradient></defs><path class="cls-3" d="M72,353.85v6.15H0v-108c0,47.02,30.05,87.03,72,101.85Z"/><path class="cls-3" d="M108,360h-36v-6.15c11.26,3.98,23.38,6.15,36,6.15Z"/><path d="M216,288c-2.17,0-4.29,.19-6.35,.56,.07-.18,.14-.37,.2-.56h6.15Z"/><path class="cls-1" d="M252,324c0,19.88-16.12,36-36,36H108c-12.62,0-24.74-2.17-36-6.15C30.05,339.03,0,299.02,0,252V36C0,16.12,16.12,0,36,0s36,16.12,36,36V252c0,19.88,16.12,36,36,36h101.85c-.06,.19-.13,.38-.2,.56,2.06-.37,4.18-.56,6.35-.56,19.88,0,36,16.12,36,36Z"/><circle class="cls-3" cx="108" cy="252" r="36"/><path class="cls-3" d="M216,252c0,12.62-2.17,24.74-6.15,36H108c19.88,0,36-16.12,36-36s-16.12-36-36-36-36,16.12-36,36v-101.85c11.26-3.98,23.38-6.15,36-6.15,59.65,0,108,48.35,108,108Z"/><circle class="cls-3" cx="108" cy="252" r="36"/><circle class="cls-1" cx="324" cy="324" r="36"/><circle class="cls-1" cx="504" cy="324" r="36"/><rect class="cls-1" x="324" y="288" width="180" height="72"/><circle class="cls-1" cx="324" cy="180" r="36"/><circle class="cls-1" cx="504" cy="180" r="36"/><rect class="cls-1" x="324" y="144" width="180" height="72"/><circle class="cls-1" cx="324" cy="36" r="36"/><circle class="cls-1" cx="504" cy="36" r="36"/><rect class="cls-1" x="324" width="180" height="72"/><circle class="cls-1" cx="612" cy="324" r="36"/><circle class="cls-2" cx="900" cy="324" r="36"/><path class="cls-1" d="M781.46,61.46c-14.06,14.05-36.86,14.05-50.92,0-14.05-14.06-14.05-36.86,0-50.92,14.06-14.05,36.86-14.05,50.92,0,14.05,14.06,14.05,36.86,0,50.92Z"/><path class="cls-1" d="M1224,324c0,19.88-16.12,36-36,36h-108c-12.62,0-24.74-2.17-36-6.15-41.95-14.82-72-54.83-72-101.85V36c0-19.88,16.12-36,36-36s36,16.12,36,36V252c0,19.88,16.12,36,36,36h101.85c-.06,.19-.13,.38-.2,.56,2.06-.37,4.18-.56,6.35-.56,19.88,0,36,16.12,36,36Z"/><line class="cls-1" x1="792" x2="720" y2="72"/><line class="cls-1" x1="576" y1="288" x2="648" y2="360"/><rect class="cls-1" x="648.43" y="17.09" width="72" height="324" transform="translate(152.3 -287.12) rotate(26.56)"/><rect class="cls-1" x="771.22" y="21.94" width="72" height="233.66" transform="translate(23.33 376.21) rotate(-26.61)"/><circle class="cls-1" cx="859" cy="242" r="36"/></svg>